<?xml version="1.0" standalone="no"?>
<!DOCTYPE svg PUBLIC "-//W3C//DTD SVG 20010904//EN"
 "http://www.w3.org/TR/2001/REC-SVG-20010904/DTD/svg10.dtd">
<svg version="1.0" xmlns="http://www.w3.org/2000/svg"
 width="752.000000pt" height="752.000000pt" viewBox="0 0 752.000000 752.000000"
 preserveAspectRatio="xMidYMid meet">
<metadata>
Created by potrace 1.11, written by Peter Selinger 2001-2013
</metadata>
<g transform="translate(0.000000,752.000000) scale(0.100000,-0.100000)"
fill="#000000" stroke="none">
<path d="M3751 7295 c-6 -16 -15 -39 -20 -50 -5 -11 -20 -51 -34 -90 -14 -38
-67 -182 -118 -320 -51 -137 -99 -268 -106 -290 -30 -84 -317 -859 -413 -1115
-34 -91 -63 -169 -64 -175 -2 -5 -7 -21 -13 -35 -5 -14 -36 -97 -67 -185 -32
-88 -66 -178 -75 -200 -10 -22 -23 -59 -31 -82 l-13 -43 -56 -1 c-31 0 -78 -2
-106 -4 -27 -1 -131 -6 -230 -10 -99 -4 -216 -8 -260 -10 -44 -2 -154 -6 -245
-10 -91 -3 -212 -8 -269 -10 -57 -3 -165 -7 -240 -10 -75 -3 -185 -7 -246 -10
-60 -2 -177 -7 -260 -10 -82 -3 -195 -7 -250 -10 -200 -9 -392 -17 -503 -20
-63 -2 -115 -5 -118 -7 -3 -3 397 -324 585 -468 25 -20 55 -43 66 -52 11 -9
54 -43 95 -76 41 -32 152 -119 245 -193 94 -74 190 -150 215 -169 25 -19 47
-37 50 -40 3 -3 34 -28 70 -56 36 -28 153 -120 260 -204 107 -85 251 -199 320
-253 69 -54 132 -104 140 -110 8 -7 42 -34 76 -60 l61 -48 -64 -227 c-35 -125
-96 -339 -134 -477 -39 -137 -73 -259 -75 -270 -2 -11 -8 -31 -13 -45 -5 -14
-30 -101 -56 -195 -26 -93 -58 -208 -71 -255 -47 -162 -54 -186 -109 -382
-137 -491 -167 -597 -185 -658 -33 -116 -49 -174 -47 -176 1 -1 54 33 117 75
63 43 585 391 1160 774 l1044 697 131 -87 c71 -49 134 -90 140 -92 5 -2 12 -7
15 -10 11 -13 70 -51 79 -51 5 0 11 -3 13 -7 4 -11 158 -113 169 -113 5 0 9
-4 9 -10 0 -5 7 -10 15 -10 8 0 15 -4 15 -8 0 -5 10 -14 23 -21 31 -16 -8 10
884 -587 444 -297 813 -543 819 -547 6 -3 -5 49 -23 116 -19 67 -43 151 -53
187 -9 36 -86 308 -170 605 -84 297 -156 554 -160 570 -5 17 -27 95 -49 175
-23 80 -48 168 -56 195 -69 246 -89 317 -101 360 -8 28 -16 57 -18 65 -2 8
-23 80 -46 160 -22 80 -43 155 -46 167 -2 12 -9 35 -15 50 -11 30 -11 31 71
95 47 37 401 316 420 331 8 7 35 28 60 47 25 19 52 40 60 47 8 7 110 87 225
178 116 92 219 174 230 183 11 10 36 28 55 42 19 13 37 27 40 30 3 3 156 125
340 270 184 145 387 305 450 355 63 50 141 111 172 135 32 24 56 45 54 47 -2
3 -135 9 -381 18 -82 3 -193 8 -245 10 -122 5 -386 16 -515 20 -55 2 -161 6
-235 9 -74 4 -191 8 -260 11 -69 3 -183 7 -255 10 -156 7 -283 12 -510 21 -93
4 -192 8 -220 9 -27 1 -75 3 -106 4 l-56 1 -32 88 c-18 48 -42 112 -53 142
-11 30 -24 64 -28 75 -5 11 -34 90 -65 175 -52 143 -231 625 -613 1660 -82
223 -156 421 -165 440 l-15 35 -11 -30z"/>
</g>
</svg>
