<svg xmlns="http://www.w3.org/2000/svg" viewBox="0 0 639.46 70.22"><defs><style>.a{fill:#804b9d;}</style></defs><title>JessicaJaniuk</title><path class="a" d="M46.16,57.11c0,8.52-4.59,13.11-13.11,13.11H13.11C4.59,70.22,0,65.63,0,57.11V42.51H13.48V56a1.68,1.68,0,0,0,1.87,1.87H30.8A1.68,1.68,0,0,0,32.67,56V2.81H46.16v54.3Z"/><path class="a" d="M70.86,57.67a1.87,1.87,0,0,0,2.06,2.06H84.8a1.87,1.87,0,0,0,2.06-2.06V53.74H99.78V58c0,8-4.21,12.17-12.17,12.17H70.11c-8,0-12.17-4.21-12.17-12.17V31.83c0-8,4.21-12.17,12.17-12.17H87.62c8,0,12.17,4.21,12.17,12.17V48.59H70.86v9.08Zm2.06-27.53a1.87,1.87,0,0,0-2.06,2.06v7.68h16V32.21a1.87,1.87,0,0,0-2.06-2.06H72.91Z"/><path class="a" d="M135.82,31.83a1.87,1.87,0,0,0-2.06-2.06h-9.92a1.87,1.87,0,0,0-2.06,2.06v3.65c0,1.69.37,2.43,2.81,2.81l14.14,2.25c7.68,1.22,11,4.21,11,10.86V58c0,8-4.21,12.17-12.17,12.17h-17c-8,0-12.17-4.21-12.17-12.17v-4.4h12.73V58a1.87,1.87,0,0,0,2.06,2.06H135A1.87,1.87,0,0,0,137,58V53.46c0-1.68-.37-2.43-2.81-2.81L120.09,48.4c-7.68-1.22-11-4.21-11-10.86V31.83c0-8,4.21-12.17,12.17-12.17h15.17c8,0,12.17,4.21,12.17,12.17v3.56H135.82V31.83Z"/><path class="a" d="M185,31.83A1.87,1.87,0,0,0,183,29.77h-9.92A1.87,1.87,0,0,0,171,31.83v3.65c0,1.69.37,2.43,2.81,2.81l14.14,2.25c7.68,1.22,11,4.21,11,10.86V58c0,8-4.21,12.17-12.17,12.17h-17c-8,0-12.17-4.21-12.17-12.17v-4.4h12.73V58a1.87,1.87,0,0,0,2.06,2.06h11.8A1.87,1.87,0,0,0,186.26,58V53.46c0-1.68-.37-2.43-2.81-2.81L169.32,48.4c-7.68-1.22-11-4.21-11-10.86V31.83c0-8,4.21-12.17,12.17-12.17h15.17c8,0,12.17,4.21,12.17,12.17v3.56H185V31.83Z"/><path class="a" d="M221.92,70.22H209V19.66h12.92V70.22Z"/><path class="a" d="M261.42,19.66c8,0,12.17,4.21,12.17,12.17V38.2H260.67V33a1.87,1.87,0,0,0-2.06-2.06H248A1.87,1.87,0,0,0,246,33v24A1.87,1.87,0,0,0,248,59h10.58a1.87,1.87,0,0,0,2.06-2.06V51.68h12.92V58c0,8-4.21,12.17-12.17,12.17h-16.2c-8,0-12.17-4.21-12.17-12.17V31.83c0-8,4.21-12.17,12.17-12.17h16.2Z"/><path class="a" d="M311.77,19.66c8,0,12.17,4.21,12.17,12.17V70.22H311V62.35c-2.25,3.09-6.46,7.87-13.48,7.87h-3.93c-8,0-12.17-4.21-12.17-12.17V52.62c0-8,5.15-13.11,13.11-13.11h2.81A59.51,59.51,0,0,1,311,41.19V32.58A1.87,1.87,0,0,0,309,30.52h-11a1.87,1.87,0,0,0-2.06,2.06V35.3H283.13V31.83c0-8,4.21-12.17,12.17-12.17h16.48ZM296.23,48.78a1.87,1.87,0,0,0-2.06,2.06v6.27a1.87,1.87,0,0,0,2.06,2.06h3.65A21.22,21.22,0,0,0,311,55.8v-7H296.23Z"/><path class="a" d="M398.07,57.11c0,8.52-4.59,13.11-13.11,13.11H365c-8.52,0-13.11-4.59-13.11-13.11V42.51H365.4V56a1.68,1.68,0,0,0,1.87,1.87h15.45A1.68,1.68,0,0,0,384.59,56V2.81h13.48v54.3Z"/><path class="a" d="M438.88,19.66c8,0,12.17,4.21,12.17,12.17V70.22H438.13V62.35c-2.25,3.09-6.46,7.87-13.48,7.87h-3.93c-8,0-12.17-4.21-12.17-12.17V52.62c0-8,5.15-13.11,13.11-13.11h2.81a59.51,59.51,0,0,1,13.67,1.69V32.58a1.87,1.87,0,0,0-2.06-2.06H425A1.87,1.87,0,0,0,423,32.58V35.3H410.23V31.83c0-8,4.21-12.17,12.17-12.17h16.48ZM423.33,48.78a1.87,1.87,0,0,0-2.06,2.06v6.27a1.87,1.87,0,0,0,2.06,2.06H427a21.22,21.22,0,0,0,11.14-3.37v-7H423.33Z"/><path class="a" d="M462.73,19.66h12.92v7.86c2.25-3.09,6.46-7.86,13.48-7.86h3.18c8,0,12.17,4.21,12.17,12.17V70.22H491.57V33.33a1.87,1.87,0,0,0-2.06-2.06H486.8a21.2,21.2,0,0,0-11.14,3.37V70.22H462.73V19.66Z"/><path class="a" d="M529.1,70.22H516.18V19.66H529.1V70.22Z"/><path class="a" d="M582.55,70.22H569.63V62.35c-2.25,3.09-6.46,7.87-13.48,7.87H553C545,70.22,540.8,66,540.8,58V19.66h12.92V56.55a1.88,1.88,0,0,0,2.06,2.06h2.72a21.22,21.22,0,0,0,11.14-3.37V19.66h12.92V70.22Z"/><path class="a" d="M611.47,49.62h-4v20.6H594.71V0h12.73V38.76h4.21l13-19.1h13.85L621.76,44.19l17.7,26H625.14Z"/></svg>